<svg xmlns="http://www.w3.org/2000/svg" width="1081" height="410" viewBox="0 0 1081 410" fill="none">
    <g clip-path="url(#clip0_418_57)">
        <path d="M288.73 292.184C277.307 296.597 264.597 296.294 253.397 291.34C242.197 286.387 233.424 277.19 229.009 265.773L222.325 248.465L216.864 234.388L216.598 233.696C223.101 227.573 231.667 224.114 240.6 224.004V224.004C231.267 223.877 222.353 220.105 215.768 213.493C209.183 206.881 205.449 197.956 205.365 188.627C205.264 197.952 201.523 206.869 194.939 213.477C188.355 220.086 179.449 223.863 170.119 224.004V224.004C179.065 224.112 187.64 227.59 194.132 233.742L193.867 234.423L188.406 248.546L181.721 265.854C177.306 277.271 168.534 286.468 157.334 291.421C146.134 296.374 133.424 296.678 122 292.265L185.15 128.927C192.296 110.465 218.434 110.465 225.557 128.927L288.73 292.184Z" fill="#E2AF2F"/>
        <path d="M451.125 251.774H428.162L422.351 235.878H381.812L375.859 251.774H352.897L389.466 157.945H414.697L451.125 251.774ZM416.823 218.294L402.081 177.921L387.34 218.294H416.823Z" fill="white"/>
        <path d="M493.798 251.774H474.379L446.881 183.829H466.158L484.018 231.095L501.877 183.829H521.296L493.798 251.774Z" fill="white"/>
        <path d="M587.447 243.193C580.832 250.039 572.044 253.462 561.083 253.462C550.121 253.462 541.333 250.039 534.719 243.193C528.198 236.253 524.938 227.766 524.938 217.731C524.938 207.696 528.198 199.256 534.719 192.41C541.333 185.564 550.121 182.141 561.083 182.141C572.044 182.141 580.832 185.564 587.447 192.41C594.062 199.256 597.369 207.696 597.369 217.731C597.369 227.766 594.062 236.253 587.447 243.193ZM548.326 231.939C551.444 235.69 555.697 237.566 561.083 237.566C566.469 237.566 570.721 235.69 573.84 231.939C577.053 228.094 578.659 223.358 578.659 217.731C578.659 212.198 577.053 207.556 573.84 203.804C570.721 199.959 566.469 198.037 561.083 198.037C555.697 198.037 551.444 199.959 548.326 203.804C545.208 207.556 543.648 212.198 543.648 217.731C543.648 223.358 545.208 228.094 548.326 231.939Z" fill="white"/>
        <path d="M644.742 253.462C627.922 253.462 614.598 248.491 604.771 238.55L615.685 223.358C623.812 231.798 633.828 236.018 645.734 236.018C650.932 236.018 654.948 235.034 657.783 233.064C660.712 231.001 662.177 228.516 662.177 225.609C662.177 223.076 660.806 220.966 658.066 219.278C655.42 217.59 652.066 216.371 648.002 215.621C644.034 214.871 639.687 213.792 634.962 212.385C630.237 210.979 625.843 209.384 621.78 207.603C617.811 205.821 614.456 203.007 611.716 199.162C609.07 195.317 607.747 190.628 607.747 185.095C607.747 177.03 611.007 170.278 617.528 164.838C624.048 159.305 632.741 156.539 643.608 156.539C658.633 156.539 670.917 160.899 680.462 169.621L669.264 184.251C661.799 177.405 652.633 173.982 641.766 173.982C637.513 173.982 634.206 174.826 631.844 176.514C629.481 178.202 628.3 180.5 628.3 183.407C628.3 185.658 629.623 187.58 632.269 189.175C635.009 190.675 638.364 191.8 642.333 192.551C646.396 193.301 650.743 194.426 655.373 195.927C660.098 197.333 664.445 198.975 668.413 200.85C672.477 202.632 675.831 205.492 678.477 209.431C681.217 213.276 682.588 217.919 682.588 223.358C682.588 232.361 679.328 239.629 672.807 245.162C666.382 250.695 657.027 253.462 644.742 253.462Z" fill="white"/>
        <path d="M716.739 253.462C710.408 253.462 705.588 251.867 702.281 248.679C698.974 245.49 697.32 240.895 697.32 234.893V199.444H685.981V183.829H697.32V165.26H715.463V183.829H729.354V199.444H715.463V230.11C715.463 232.267 716.03 234.049 717.164 235.456C718.298 236.862 719.81 237.566 721.7 237.566C724.535 237.566 726.614 236.909 727.937 235.596L731.764 249.101C728.456 252.008 723.448 253.462 716.739 253.462Z" fill="white"/>
        <path d="M800.777 251.774H782.776V244.74C777.862 250.554 770.633 253.462 761.089 253.462C754.947 253.462 749.419 251.492 744.505 247.553C739.686 243.521 737.276 237.988 737.276 230.954C737.276 223.639 739.638 218.153 744.363 214.495C749.183 210.838 754.758 209.009 761.089 209.009C770.822 209.009 778.051 211.776 782.776 217.309V208.165C782.776 204.695 781.405 201.929 778.665 199.866C775.925 197.802 772.287 196.771 767.751 196.771C760.286 196.771 753.624 199.444 747.765 204.789L740.961 192.832C749.088 185.705 759.057 182.141 770.869 182.141C779.657 182.141 786.839 184.157 792.414 188.19C797.989 192.222 800.777 198.787 800.777 207.884V251.774ZM768.318 241.364C775.027 241.364 779.846 239.394 782.776 235.456V227.015C779.846 223.076 775.027 221.107 768.318 221.107C764.633 221.107 761.561 222.045 759.105 223.921C756.648 225.702 755.419 228.188 755.419 231.376C755.419 234.471 756.648 236.909 759.105 238.691C761.561 240.473 764.633 241.364 768.318 241.364Z" fill="white"/>
        <path d="M885.535 251.774H862.998L844.855 225.609L836.634 234.33V251.774H818.632V157.945H836.634V214.073L862.573 183.829H884.685L857.612 214.636L885.535 251.774Z" fill="white"/>
        <path d="M925.832 253.462C915.249 253.462 906.508 250.179 899.61 243.615C892.711 237.05 889.262 228.422 889.262 217.731C889.262 207.696 892.57 199.256 899.184 192.41C905.894 185.564 914.398 182.141 924.698 182.141C934.904 182.141 943.172 185.611 949.503 192.551C955.834 199.397 959 208.4 959 219.56V223.498H908.114C908.681 228 910.713 231.751 914.209 234.752C917.705 237.753 922.241 239.254 927.817 239.254C930.84 239.254 934.1 238.644 937.597 237.425C941.188 236.206 944.022 234.565 946.101 232.502L954.039 244.037C947.141 250.32 937.739 253.462 925.832 253.462ZM941.566 211.401C941.282 207.556 939.723 204.086 936.888 200.991C934.148 197.896 930.084 196.349 924.698 196.349C919.595 196.349 915.627 197.896 912.792 200.991C909.957 203.992 908.303 207.462 907.831 211.401H941.566Z" fill="white"/>
    </g>
    <defs>
        <clipPath id="clip0_418_57">
            <rect width="837" height="180" fill="white" transform="translate(122 115)"/>
        </clipPath>
    </defs>
    <auto-scroll xmlns="http://www.w3.org/1999/xhtml"></auto-scroll><deepl-alert xmlns=""/><deepl-alert xmlns=""/><deepl-alert xmlns=""/></svg>